<svg xmlns="http://www.w3.org/2000/svg" viewBox="0 0 746.55 740.93"><defs><style>.cls-1{fill:#cbc0aa;}.cls-2{fill:#395d73;}.cls-3{fill:#a9b5ab;}.cls-4{fill:#545454;}</style></defs><title>No3Logo</title><g id="LeftHouse"><path class="cls-1" d="M221.45,411V351.28a60.58,60.58,0,0,1,44.35-58.17L265,186.73c1-8.44-5.57-21.67-19.4-14.8V144.82a15.29,15.29,0,0,0-15.24-15.25H163a15.29,15.29,0,0,0-15.25,15.25v123.9L35.26,383.05c-15.12,22.86-3.41,35.67,18.9,35.57l94.23,1.06V622.32a41,41,0,0,0,40.89,40.88h27.09v81.32a25.41,25.41,0,0,0,50.82,0v-275A60.59,60.59,0,0,1,221.45,411Z" transform="translate(-28.45 -29)"/></g><g id="MidHouse"><path class="cls-2" d="M508.08,120.36l-78.4-80.17a39.58,39.58,0,0,0-55.81.65l-75.71,76.87a4.55,4.55,0,0,0-.48,1V291.8c1.68-.14,3.37-.23,5.09-.23H508.6V122.36A5.24,5.24,0,0,0,508.08,120.36Z" transform="translate(-28.45 -29)"/><path class="cls-2" d="M502.24,530.43H463.49v78.14a22.3,22.3,0,0,0,22.24,22.23H487a22.3,22.3,0,0,0,21.6-17.06V530.09A60.71,60.71,0,0,1,502.24,530.43Z" transform="translate(-28.45 -29)"/><path class="cls-2" d="M302.77,473.25c-1.72,0-3.41-.09-5.09-.23V682.81a26,26,0,0,0,51.46-5.63V473.25Z" transform="translate(-28.45 -29)"/></g><g id="RightHouse"><path class="cls-3" d="M768.19,382.38,568.74,179.69c-21.25-21.76-31.47-4.05-30.29,6.37l-.81,106.52a60.57,60.57,0,0,1,44,56.69,60.59,60.59,0,0,1,45.77,58.55v62.26A60.53,60.53,0,0,1,567,530.43H537.18V708.31a24.78,24.78,0,0,0,49.56,0V667.65H611.3a48,48,0,0,0,47.86-47.86V419l90.13-1C771.6,418.05,783.31,405.25,768.19,382.38Z" transform="translate(-28.45 -29)"/></g><g id="PaintBrush"><path class="cls-4" d="M560.69,369.07H555V356.36a35.68,35.68,0,0,0-35.57-35.57H286.88a35.68,35.68,0,0,0-35.57,35.57v52.1A35.68,35.68,0,0,0,286.88,444H519.4A35.68,35.68,0,0,0,555,408.46v-14h.85a22.09,22.09,0,0,1,22,22v39.81a22.09,22.09,0,0,1-22,22H430.46v.23a42.71,42.71,0,0,0-38.12,42.33v13.34H389.8a14,14,0,0,0-14,14v176.6a14,14,0,0,0,14,14h33a14,14,0,0,0,14-14V548.22a14,14,0,0,0-14-14h-5.08v-5.93a22.11,22.11,0,0,1,17.79-21.6v-.42H560.69a42.68,42.68,0,0,0,42.56-42.56v-52.1A42.68,42.68,0,0,0,560.69,369.07Z" transform="translate(-28.45 -29)"/></g></svg>